<svg width="215" height="41" viewBox="0 0 215 41" version="1.1" xmlns="http://www.w3.org/2000/svg" xmlns:xlink="http://www.w3.org/1999/xlink">
<title>Coolercolors</title>
<desc>Created using Figma</desc>
<g id="Canvas" transform="translate(-19806 4860)">
<g id="Coolercolors">
<g id="Group 2">
<g id="Group">
<g id="Vector">
<use xlink:href="#path0_fill" transform="translate(19818.8 -4844.54)" fill="url(#paint0_linear)"/>
</g>
<g id="Vector">
<use xlink:href="#path1_fill" transform="translate(19806 -4860)" fill="url(#paint1_linear)"/>
</g>
</g>
<g id="PLANSFORM">
<use xlink:href="#path2_fill" transform="translate(19846.6 -4844.95)" fill="#4A4A4A"/>
<use xlink:href="#path3_fill" transform="translate(19846.6 -4844.95)" fill="#4A4A4A"/>
<use xlink:href="#path4_fill" transform="translate(19846.6 -4844.95)" fill="#4A4A4A"/>
<use xlink:href="#path5_fill" transform="translate(19846.6 -4844.95)" fill="#4A4A4A"/>
<use xlink:href="#path6_fill" transform="translate(19846.6 -4844.95)" fill="#4A4A4A"/>
<use xlink:href="#path7_fill" transform="translate(19846.6 -4844.95)" fill="#4A4A4A"/>
<use xlink:href="#path8_fill" transform="translate(19846.6 -4844.95)" fill="#4A4A4A"/>
<use xlink:href="#path9_fill" transform="translate(19846.6 -4844.95)" fill="#4A4A4A"/>
<use xlink:href="#path10_fill" transform="translate(19846.6 -4844.95)" fill="#4A4A4A"/>
</g>
</g>
</g>
</g>
<defs>
<linearGradient id="paint0_linear" x1="0" y1="0" x2="1" y2="0" gradientUnits="userSpaceOnUse" gradientTransform="matrix(-9.05165 9.09688 -9.79527 -9.84422 22.7459 5.99472)">
<stop offset="0" stop-color="#74C7B9"/>
<stop offset="1" stop-color="#0878A8"/>
</linearGradient>
<linearGradient id="paint1_linear" x1="0" y1="0" x2="1" y2="0" gradientUnits="userSpaceOnUse" gradientTransform="matrix(18.8682 18.9625 -14.1512 14.2219 18.9957 14.9266)">
<stop offset="0" stop-color="#D63E6D"/>
<stop offset="1" stop-color="#562775"/>
</linearGradient>
<path id="path0_fill" d="M 8.92416 7.60699C 15.2348 7.60699 17.8483 3.8273 17.8483 0C 17.8483 16.5757 6.3744 16.5757 6.3744 16.5757L 0 16.5757L 0 7.60699L 8.92416 7.60699Z"/>
<path id="path1_fill" d="M 0 12.0902L 0 41C 6.3744 41 8.92416 38.4375 8.92416 31.5342L 8.92416 12.8125C 8.92416 10.25 11.4739 8.96875 12.7488 8.96875L 17.8483 8.96875C 19.1232 8.96875 21.673 10.2554 21.673 12.8125L 21.673 23.0625C 27.9836 23.0625 30.5971 19.2828 30.5971 15.4555L 30.5971 10.5322C 30.5971 0 19.1232 0 17.8483 0L 12.7488 0C 11.4739 0 -5.57475e-06 0 0 12.0902Z"/>
<path id="path2_fill" d="M 10.387 5.05618C 10.387 6.72281 9.81931 8.00656 8.68387 8.90744C 7.5559 9.80081 5.93865 10.2475 3.83211 10.2475L 1.90485 10.2475L 1.90485 16.7226L 0 16.7226L 0 0.259003L 4.24669 0.259003C 8.34025 0.259003 10.387 1.85806 10.387 5.05618ZM 1.90485 8.60339L 3.61921 8.60339C 5.30743 8.60339 6.52878 8.32938 7.28325 7.78134C 8.03772 7.23331 8.41495 6.35495 8.41495 5.14627C 8.41495 4.05771 8.06013 3.24692 7.35048 2.7139C 6.64083 2.18088 5.53527 1.91437 4.0338 1.91437L 1.90485 1.91437L 1.90485 8.60339Z"/>
<path id="path3_fill" d="M 19.3344 16.7226L 19.3344 0.259003L 21.2393 0.259003L 21.2393 14.9884L 28.4665 14.9884L 28.4665 16.7226L 19.3344 16.7226Z"/>
<path id="path4_fill" d="M 47.0614 16.7226L 45.0221 11.4862L 38.456 11.4862L 36.4391 16.7226L 34.5118 16.7226L 40.9883 0.191437L 42.5906 0.191437L 49.0335 16.7226L 47.0614 16.7226ZM 44.4283 9.76328L 42.5234 4.66205C 42.2769 4.01642 42.0229 3.2244 41.7615 2.28598C 41.5971 3.00668 41.3618 3.79871 41.0555 4.66205L 39.1283 9.76328L 44.4283 9.76328Z"/>
<path id="path5_fill" d="M 69.5893 16.7226L 67.4155 16.7226L 58.4627 2.90533L 58.3731 2.90533C 58.4926 4.52692 58.5524 6.01337 58.5524 7.36469L 58.5524 16.7226L 56.7932 16.7226L 56.7932 0.259003L 58.9445 0.259003L 67.8749 14.0199L 67.9646 14.0199C 67.9496 13.8172 67.916 13.1678 67.8637 12.0718C 67.8114 10.9682 67.7928 10.1799 67.8077 9.70697L 67.8077 0.259003L 69.5893 0.259003L 69.5893 16.7226Z"/>
<path id="path6_fill" d="M 88.8453 12.342C 88.8453 13.791 88.3224 14.9208 87.2766 15.7316C 86.2308 16.5424 84.8115 16.9478 83.0187 16.9478C 81.0765 16.9478 79.5825 16.6963 78.5367 16.1933L 78.5367 14.3465C 79.209 14.6318 79.9411 14.857 80.7329 15.0222C 81.5247 15.1873 82.3091 15.2699 83.0859 15.2699C 84.3558 15.2699 85.312 15.0297 85.9544 14.5492C 86.5968 14.0612 86.918 13.3856 86.918 12.5222C 86.918 11.9517 86.8023 11.4862 86.5707 11.1259C 86.3466 10.758 85.9656 10.4202 85.4278 10.1124C 84.8974 9.80457 84.0869 9.45547 82.9963 9.06509C 81.4724 8.51706 80.3818 7.86768 79.7244 7.11694C 79.0745 6.36621 78.7496 5.3865 78.7496 4.17783C 78.7496 2.90909 79.2239 1.89935 80.1726 1.14862C 81.1213 0.397889 82.3763 0.022522 83.9375 0.022522C 85.566 0.022522 87.0637 0.322814 88.4307 0.923401L 87.8369 2.59003C 86.4848 2.01947 85.1701 1.73419 83.8927 1.73419C 82.8842 1.73419 82.0962 1.9519 81.5284 2.38733C 80.9607 2.82275 80.6769 3.42709 80.6769 4.20035C 80.6769 4.7709 80.7814 5.24011 80.9906 5.60797C 81.1998 5.96832 81.5508 6.3024 82.0439 6.6102C 82.5444 6.91049 83.3063 7.24457 84.3297 7.61243C 86.0478 8.22803 87.228 8.88867 87.8705 9.59436C 88.5204 10.3 88.8453 11.2159 88.8453 12.342Z"/>
<path id="path7_fill" d="M 99.6079 16.7226L 97.7031 16.7226L 97.7031 0.259003L 106.835 0.259003L 106.835 1.95941L 99.6079 1.95941L 99.6079 7.98404L 106.398 7.98404L 106.398 9.68445L 99.6079 9.68445L 99.6079 16.7226Z"/>
<path id="path8_fill" d="M 129.285 8.46826C 129.285 11.1033 128.62 13.1754 127.29 14.6843C 125.968 16.1933 124.127 16.9478 121.766 16.9478C 119.353 16.9478 117.489 16.2083 116.175 14.7294C 114.867 13.2429 114.214 11.1484 114.214 8.44574C 114.214 5.76562 114.871 3.68985 116.186 2.21841C 117.501 0.739471 119.368 0 121.788 0C 124.141 0 125.979 0.750732 127.301 2.2522C 128.623 3.75366 129.285 5.82568 129.285 8.46826ZM 116.231 8.46826C 116.231 10.6979 116.701 12.3908 117.643 13.547C 118.591 14.6956 119.966 15.2699 121.766 15.2699C 123.581 15.2699 124.952 14.6956 125.878 13.547C 126.805 12.3983 127.268 10.7054 127.268 8.46826C 127.268 6.2536 126.805 4.57571 125.878 3.4346C 124.959 2.28598 123.596 1.71167 121.788 1.71167C 119.973 1.71167 118.591 2.28973 117.643 3.44586C 116.701 4.59448 116.231 6.26862 116.231 8.46826Z"/>
<path id="path9_fill" d="M 140.361 9.87589L 140.361 16.7226L 138.456 16.7226L 138.456 0.259003L 142.949 0.259003C 144.959 0.259003 146.442 0.64563 147.398 1.41888C 148.361 2.19214 148.843 3.35577 148.843 4.90979C 148.843 7.08691 147.745 8.55835 145.549 9.3241L 149.997 16.7226L 147.745 16.7226L 143.778 9.87589L 140.361 9.87589ZM 140.361 8.23178L 142.972 8.23178C 144.316 8.23178 145.302 7.96527 145.93 7.43225C 146.557 6.89172 146.871 6.08469 146.871 5.01114C 146.871 3.92258 146.55 3.13806 145.907 2.65759C 145.272 2.17712 144.249 1.93689 142.837 1.93689L 140.361 1.93689L 140.361 8.23178Z"/>
<path id="path10_fill" d="M 165.399 16.7226L 159.841 2.12833L 159.751 2.12833C 159.856 3.28445 159.908 4.65829 159.908 6.24985L 159.908 16.7226L 158.149 16.7226L 158.149 0.259003L 161.018 0.259003L 166.205 13.8398L 166.295 13.8398L 171.528 0.259003L 174.374 0.259003L 174.374 16.7226L 172.469 16.7226L 172.469 6.11472C 172.469 4.89853 172.521 3.57724 172.626 2.15085L 172.536 2.15085L 166.934 16.7226L 165.399 16.7226Z"/>
</defs>
</svg>
